<?xml version="1.0" encoding="utf-8"?>
<!-- Generator: Adobe Illustrator 21.0.0, SVG Export Plug-In . SVG Version: 6.00 Build 0)  -->
<svg version="1.1" id="图层_1" xmlns="http://www.w3.org/2000/svg" xmlns:xlink="http://www.w3.org/1999/xlink" x="0px" y="0px"
	 viewBox="0 0 30 30" style="enable-background:new 0 0 30 30;" xml:space="preserve">
<style type="text/css">
	.st0{fill:#4D4D4D;}
</style>
<path class="st0" d="M15,26C8.9,26,4,21.1,4,15S8.9,4,15,4s11,4.9,11,11S21.1,26,15,26z M15,5C9.5,5,5,9.5,5,15s4.5,10,10,10
	s10-4.5,10-10S20.5,5,15,5z"/>
<path class="st0" d="M20.2,15.2h-5.1v-5.1c0-0.3-0.3-0.6-0.6-0.6s-0.6,0.3-0.6,0.6v5.7c0,0.3,0.3,0.6,0.6,0.6h5.7
	c0.3,0,0.6-0.3,0.6-0.6C20.8,15.5,20.5,15.2,20.2,15.2z"/>
</svg>
