<svg id="图层_1" data-name="图层 1" xmlns="http://www.w3.org/2000/svg" viewBox="0 0 30 30"><defs><style>.cls-1{fill:#4d4d4d;fill-rule:evenodd;}</style></defs><title>enmoji</title><path class="cls-1" d="M15,26A11,11,0,1,1,26,15,11,11,0,0,1,15,26ZM15,5A10,10,0,1,0,25,15,10,10,0,0,0,15,5Z"/><path class="cls-1" d="M15,21.22a7.11,7.11,0,0,1-5.63-2.75.52.52,0,1,1,.82-.65,6.1,6.1,0,0,0,9.65,0,.52.52,0,0,1,.83.64A7.1,7.1,0,0,1,15,21.22Z"/><path class="cls-1" d="M11.65,14.69a.79.79,0,0,1-.79-.79V12.33a.79.79,0,1,1,1.57,0V13.9a.79.79,0,0,1-.79.79Z"/><path class="cls-1" d="M18.46,14.69a.79.79,0,0,1-.79-.79V12.33a.79.79,0,1,1,1.57,0V13.9a.79.79,0,0,1-.79.79Z"/></svg>