<svg id="图层_1" data-name="图层 1" xmlns="http://www.w3.org/2000/svg" viewBox="0 0 30 30"><defs><style>.cls-1{fill:#4d4d4d;fill-rule:evenodd;}</style></defs><title>photo</title><path class="cls-1" d="M22.21,11.32c-3,0-3.62,2.1-4.1,3.63-.38,1.2-.62,1.88-1.36,2A4.58,4.58,0,0,1,16,17a7.34,7.34,0,0,1-2.18-.42,8.29,8.29,0,0,0-2.26-.45h-.08c-2.82,0-4.22,4.37-4.23,4.41a.47.47,0,0,0,.91.28s1.17-3.74,3.33-3.74a7.45,7.45,0,0,1,2.05.41A8.36,8.36,0,0,0,16,18a5.75,5.75,0,0,0,.89-.07c1.36-.22,1.76-1.51,2.12-2.65.56-1.79,1.08-3,3.19-3a.47.47,0,1,0,0-.95Z"/><path class="cls-1" d="M23.37,5.62H6.63A2.64,2.64,0,0,0,4,8.25V21.75a2.64,2.64,0,0,0,2.63,2.63H23.37A2.64,2.64,0,0,0,26,21.75V8.25A2.64,2.64,0,0,0,23.37,5.62ZM25,21.75a1.69,1.69,0,0,1-1.68,1.68H6.63a1.69,1.69,0,0,1-1.68-1.68V8.25A1.69,1.69,0,0,1,6.63,6.57H23.37A1.69,1.69,0,0,1,25,8.25Z"/></svg>