<?xml version="1.0" encoding="utf-8"?>
<!-- Generator: Adobe Illustrator 21.0.0, SVG Export Plug-In . SVG Version: 6.00 Build 0)  -->
<svg version="1.1" id="图层_1" xmlns="http://www.w3.org/2000/svg" xmlns:xlink="http://www.w3.org/1999/xlink" x="0px" y="0px"
	 viewBox="0 0 200 200" style="enable-background:new 0 0 200 200;" xml:space="preserve">
<style type="text/css">
	.st0{fill:#E1E1E1;}
	.st1{fill:#FFFFFF;}
</style>
<path class="st0" d="M153.5,200h-107C20.8,200,0,179.2,0,153.5v-107C0,20.8,20.8,0,46.5,0h107C179.2,0,200,20.8,200,46.5v107
	C200,179.2,179.2,200,153.5,200z"/>
<g>
	<g>
		<path class="st1" d="M59.8,129.7c3.8-3.1,12.2-3.3,12.2-3.3c-9.8-1.1-15.9,2.2-15.9,2.2c-11.3,3.6-16.1,0-16.1,0
			c-7.9-3.7-6.8-15.1-6.8-15.1c0.3-7.2-1.9-10.5-1.9-10.5c-3.7-9,3-15.4,3-15.4c4.2-3.4,2.7-10,2.7-10c-1.8-13,7.3-14.9,7.3-14.9
			c4.5-0.9,7.3-7.1,7.3-7.1c2.5-7.6,11.3-9.8,11.3-9.8c7.5-3.5,9.7-9.1,9.7-9.1l2-3.3c3.1-5.8,10.9-4.8,10.9-4.8
			c5.7,1.2,9-3.2,9-3.2c0.8-1.6,2.9-3.1,2.9-3.1c3.5-3,10.4,1.5,10.4,1.5c3.5,1.2,5.6-0.1,6.5-1c0.5-0.4,1.2-0.9,2-1.3
			c5.1-2.1,7.9,1.8,7.9,1.8c1.9,3.2,4.2,4.4,4.2,4.4c6,4.9,3.1,10.8,3.1,10.8c-3.4-1.5-6.8-0.9-6.8-0.9c-4.8-0.2-7.9,3-7.9,3
			c-3.2,2.7-9.8,5.6-9.8,5.6c-4.7,2.6-18.3,2-18.3,2C82.9,48.2,77,49.8,77,49.8c-10.1,3.4-11.8,12.8-11.8,12.8
			c-1,6.2,4.3,15.3,4.3,15.3c5,7.9,12.3,7,12.3,7c-2.7-1-5.5-3.3-5.5-3.3c-7.1-6.3-6-15.2-6-15.2c1.6-10.6,12.2-14,12.2-14
			c4.1-3.2,19.5-2.3,19.5-2.3c7.2,0.5,11.8-4.1,11.8-4.1c3.8-5.2,12.8-4.4,12.8-4.4c5.4,0.3,4.4,3.9,4.4,3.9c-0.8,8.9-4.9,11-4.9,11
			c-1.8,1.8-9.4,2.9-9.4,2.9c-1.9,0.1-2.4,1.5-2.4,1.5c-0.1,1.7-1.5,3.8-1.5,3.8c-2.7,3.6-7.6,4-7.6,4c-1.9,0.2-4.7,1-4.7,1
			c-6,5.1-10.9-4.7-10.9-4.7C91.2,70.8,95,74,95,74c2.5,1.6,6.9-1.9,6.9-1.9c0.9-0.8,3.1-0.3,3.1-0.3c0.6,0.3,1.6-0.1,1.6-0.1
			c0.5-0.1,1.5,0.1,1.5,0.1c0.9,0.2,2.1-0.8,2.1-0.8l0.2-0.6c0.6-0.9,2.4-0.3,2.4-0.3c0.8,0.6,3.1,0.6,3.1,0.6c1,0.2,1-1.1,1-1.1
			l0.1-2.4c0.1-2.6,1.3-3.1,1.3-3.1l1.5-0.1c-0.3-1.4,0.8-2,0.8-2C127.3,60.3,133,54,133,54c4.7-5.4,5.1-13.6,5.1-13.6
			c0.1-11-6-12.3-6-12.3c-5-1.2-7.3-6.4-7.3-6.4c-1.2-2-3-2.6-4.3-2.7c-0.1,0-0.1,0-0.2,0c-0.3,0-0.6,0-0.8,0
			c-0.4,0-0.7,0.1-0.7,0.1c-0.1,0-0.1,0-0.2,0.1c-0.5,0.2-0.9,0.4-0.9,0.4c-2.4,0.8-4.6,0.3-4.6,0.3c-3.5-1.5-8.1-0.2-8.1-0.2
			c-4,1.5-10.6-0.3-10.6-0.3c-4.9-1.1-9,4-9,4c-2,2.3-6.2,2.6-8.7,2.6c-1.8-0.3-2.9,0-2.9,0l0,0c-5.8,1.2-9.7,10.2-9.7,10.2
			c-4.1,7.2-10.2,7-10.2,7c-6.9,1-8.6,8.4-8.6,8.4c-2.2,8.9-6.1,10.4-6.1,10.4c-1.4,0.6-2.7,1.5-3.8,2.3c-1,0.6-1.7,1.3-2.2,1.9
			C33,66.4,33,66.4,33,66.4c0,0.1-0.1,0.1-0.1,0.2c-0.6,0.8-0.8,1.4-0.8,1.4h0c-1.7,4.1-0.4,9.1-0.4,9.1c1,6.1-2.3,9.3-2.3,9.3
			c-3,3-4.2,7.3-4.2,7.3c-1.4,6.3,3.4,10.4,3.4,10.4c3.7,3.6,2.7,11.2,2.7,11.2c-1.1,5.2-0.5,8.1-0.5,8.1c1.3,8.4,10,9.8,10,9.8
			C51.8,135.9,59.8,129.7,59.8,129.7z"/>
		<path class="st1" d="M83.8,88.9c0,0-15,11.9-12.1,29.3c0,0-0.2-24.5,26.8-32.4c0,0,20.7-5.9,36.4,6.4c0,0,14.7,10,12.6,28.5
			c0,0-0.2,14.3-12.6,24.9c0,0-6.7,6.8-20.2,7.8c0,0,13.3,2.3,23.6-5.2c0.8-0.6,1.7-1.1,2.5-1.8c0,0,0.6-0.5,1.6-1.5
			c3-3,9.8-9.9,11.3-21.2c0,0,2-16.8-6.2-27.2c0,0-10.9-16.6-32-17.7C115.4,79,96,77.2,83.8,88.9z"/>
		<path class="st1" d="M174.8,145.1c-3.3,1.7-3.8,6.3-3.8,8.1c0,0.5-0.1,1-0.1,1c-0.1,0.3-0.1,0.6-0.2,0.8c-1.5,3.2-7,3.3-7,3.3
			c-4.3,0.1-6.9,4.2-6.9,4.2l-2.8,3.7c-0.5,0.7-1.4,1.1-2.5,1.4c-1.9,0.4-6.2,0.3-6.2,0.3c-0.1,0-0.2,0-0.3,0c0,0,0,0,0,0
			c0,0,0,0-0.1,0c-0.3,0-0.5,0-0.7,0c-0.1,0-0.2,0-0.3,0c-0.5,0-0.9,0-1.2,0c-0.1,0-0.2,0-0.2,0c-0.2,0-0.3,0-0.5,0c0,0-0.1,0-0.1,0
			c-0.3,0-0.4,0.1-0.4,0.1v0c-0.1,0-0.2,0.1-0.3,0.1c-0.2,0.1-0.3,0.1-0.3,0.1h0c-3.1,1.1-7.2,4.2-7.2,4.2
			c-5.5,4.1-14.4,0.8-14.4,0.8c-1.6-0.5-3.8-0.6-6-0.5c0,0,0,0,0,0c-4.1,0.1-7.5,0.9-9.4,1.4c0,0,0,0,0,0c0,0,0,0,0,0
			c-0.5,0.1-0.9,0.3-1.2,0.4c-0.6,0.2-1.2,0.3-1.5,0.3c0,0,0,0-0.1,0c-0.1,0-0.1,0-0.2,0c-6.1,1-8.7-1.1-8.7-1.1
			c-4.7-4.1-10.7-3.7-10.7-3.7c-5.2-0.1-8.8-1-11.3-2.1c-0.1,0-0.2-0.1-0.3-0.1c-0.2-0.1-0.5-0.2-0.7-0.4c-1.9-1.1-4-3.9-4.6-4.6
			c0,0,0,0,0,0c-0.1-0.1-0.1-0.2-0.1-0.2s0,0,0,0c-0.1-0.1-0.1-0.2-0.2-0.2c-3.1-3.3-6.8-5-8.1-5.4c-0.3-0.1-0.3-0.1-0.3-0.1
			c-0.3-0.1-0.6-0.2-0.8-0.2c-9.1-1.5-14.4-9.2-14.4-9.2c-0.5,8.7,8.4,10.8,8.4,10.8c8.1,1.6,9.9,8.3,9.9,8.3
			c1.1,4.4,5.7,6.2,8.6,6.9l0,0c0,0,0.6,0.2,1.8,0.4c0.4,0.1,0.6,0.1,0.6,0.1c0,0,0.1,0,0.1,0C71,174,72,174,73.3,174
			c6.8,0.7,10.1,4.1,10.1,4.1c6.4,5.2,17.3,1.7,17.3,1.7c6.6-2.6,13-0.5,13-0.5c9,3.7,15.7-1.3,15.7-1.3c4.9-3.7,11.7-3,11.7-3
			c6.3,0.5,9.3-4.5,9.3-4.5c2.6-3.4,9.2-5.6,9.2-5.6c0.9-0.4,1.6-0.6,2.2-1c1-0.7,1.4-1.5,1.4-1.5c0.7-1.6,3.8-2.8,5.2-3.3
			c0.5-0.2,1-0.4,1-0.4c2.9-1.5,3.2-4.3,3.2-5.6l0,0c0.1-1,0.1-1.8,0.1-1.8c0.6-2.3,2.3-3.2,2.3-3.2c1.5-1.2,1.5-2.4,1.5-2.4
			C176.8,143.7,174.8,145.1,174.8,145.1z"/>
		<path class="st1" d="M55.9,156.9c0.1,0,0.1,0,0.2,0C56.1,156.9,55.9,156.9,55.9,156.9z"/>
		<path class="st1" d="M156,159.3c-4.5,7.8-11.3,6.5-11.3,6.5c-2.1-0.2-4,0.1-5.4,0.5c0,0,0,0,0,0c-0.6,0.1-1.2,0.4-1.9,0.7
			c-0.1,0-0.1,0.1-0.2,0.1c0,0,0,0,0,0c-1,0.4-3,1.9-3,1.9c-0.2,0.1-0.3,0.2-0.4,0.3c-0.3,0.2-0.6,0.4-0.8,0.5
			c-3.6,1.8-7.7,1.7-10.3,1.3c-0.6-0.1-2.1-0.5-2.1-0.5v0c-1.1-0.2-2.1-0.3-2.1-0.3l0,0c-1.5-0.1-3.2,0-4.8,0.1c0,0,0,0,0,0
			c-3.9,0.1-6.5,0.9-7.1,1.1c-5.2,1.4-9.4,0.8-11.7,0.3c-1.7-0.5-2.8-1.5-2.8-1.5l0,0c-3.4-3-6.4-3.3-7.7-3.2c0,0,0,0,0,0
			c-0.7,0-1.4,0.1-1.8,0.1c-5.9,0-9.4-1.7-11-2.7c-0.7-0.5-1.5-1.4-1.5-1.4l0,0c-2.3-2.7-4.7-4.4-6.4-5.5c0,0,0,0,0,0
			c-0.1,0-0.1-0.1-0.2-0.1c0,0,0,0,0,0c-0.3-0.2-0.8-0.4-1.1-0.6c-0.1-0.1-0.2-0.1-0.3-0.2c0,0-0.1,0-0.1,0l0,0
			c-0.2-0.1-0.3-0.2-0.5-0.2c0,0,0,0,0,0c-0.7-0.3-2-0.8-3-1.1c0,0,0,0,0,0c-0.7-0.2-3.2-1-3.2-1.1c-0.9-0.3-1.6-0.6-1.8-0.7
			c-4.6-2.2-7.1-4.6-7.1-4.6c-5.2-4.8,3.3-10.7,3.3-10.7c-12.6,3.7-5.8,10.9-5.8,10.9c3.4,3.9,10.6,6.4,12.7,7h0l0,0
			c0,0,0.1,0,0.1,0c0.1,0,0.2,0.1,0.3,0.1c1,0.3,3.5,1.1,4.7,1.7c2.9,1.8,4.5,4.2,4.5,4.2c2.6,3.8,7.2,5.4,9.5,6.1h0
			c0.3,0.1,0.5,0.2,0.8,0.2c1.7,0.4,3.6,0.3,4.4,0.2l0.1,0c0,0,0.1,0,0.1,0c0.1,0,0.2,0,0.2,0c0.5-0.1,1-0.1,1.4-0.1
			c5.1,0,11.1,4.9,11.1,4.9c3.4,2.3,12.7-0.8,12.7-0.8c4.3-1.5,9.3-1.1,12.2-0.7c0.2,0,1,0.2,2,0.5c0.1,0,2.7,0.8,3.8,0.9
			c0.2,0,0.4,0,0.6,0.1c0,0,0,0,0.1,0c0.8,0.1,1.6,0.1,2.3,0.1v0c0,0,0,0,0.1,0c0.8,0,1.5-0.1,2.1-0.2c0.3,0,1.5-0.2,2.2-0.5
			c0.2-0.1,0.4-0.2,0.7-0.3c0,0,0,0,0,0l0,0l0,0c0.2-0.1,0.4-0.2,0.6-0.4l0,0c0,0,0,0,0,0c0,0,0,0,0.1,0c0.3-0.2,1.5-1.1,2.1-1.4h0
			l2.9-1.9l0,0l0.7-0.4c0.6-0.4,1.7-0.9,3.3-1.1c0.5,0,1-0.1,1.5-0.1c0.8,0.1,7.7,0.4,9.6-1.5c0,0,0,0,0,0h0
			c0.3-0.2,0.5-0.4,0.6-0.6c0.2-0.3,0.2-0.3,0.2-0.3l0.9-1.3l2.2-2.9c2.4-3.8,8.7-4.1,8.7-4.1c5.5-0.6,4.3-5.8,4.3-5.8
			c0-0.6,0-0.8,0-1.1c0.1-0.7,0.2-1.3,0.4-1.7c0.1-0.2,0.5-0.9,1.5-1.6c0.6-0.3,1.5-0.8,1.9-1.1c0,0,0,0,0,0
			c1.3-0.9,2.2-2.1,2.2-2.1c1.1-1.4,1.1-2.6,0.8-3.4c0-0.2-0.2-0.5-0.4-0.8c0,0-0.1-0.1-0.1-0.1c0,0,0,0,0,0c-1-1.3-0.9-2.7-0.7-3.4
			c0-0.1,0.1-0.2,0.1-0.4c0,0,0,0,0,0l0,0c0.2-0.6,0.3-1.1,0.3-1.6c0,0,0,0,0,0c0,0,0-0.1,0-0.1c0-0.1,0-0.2,0-0.3
			c0.1-1,0.1-1.9,0-2.6c0-0.6-0.1-1-0.2-1.5c0-0.1,0-0.2,0-0.2l0,0c-0.2-0.7-0.5-1.2-0.7-1.5v0c0,0,0,0,0,0
			c-0.2-0.3-0.4-0.4-0.4-0.4c0,0-0.1-0.1-0.1-0.1c-0.3-0.3-0.7-0.6-0.8-0.8c-2.7-2.8-5.7-8.7-5.7-8.7c-4.7-8-11.6-4.8-11.6-4.8
			L156,118c3.4-2.5,6.5-1.5,8.5-0.2c0.4,0.2,1.9,1.3,2.8,2.9c0.1,0.3,0.2,0.5,0.4,0.8c0,0,0,0,0,0.1c0,0.1,0.1,0.2,0.1,0.3v0
			c0,0,0,0,0,0c0.1,0.1,0.1,0.2,0.2,0.3c0.5,0.9,2,3.7,3.3,4.7c0.1,0,0.1,0.1,0.2,0.1c0,0,0,0,0,0c0,0,0,0,0,0
			c0.1,0.1,0.3,0.2,0.5,0.3l0,0c0,0,0.4,0.2,0.8,0.5c0,0,0,0,0,0c0,0,0.1,0.1,0.1,0.1c1.2,1,1.6,2.2,1.7,3.3c0.1,1.2-0.2,2-0.5,2.5
			c-0.1,0.1-0.2,0.2-0.2,0.4c0,0,0,0,0,0l0,0c-1,1.8-0.3,3.7,0.2,4.7l0,0c0,0,0,0,0,0c0.1,0.2,0.2,0.4,0.2,0.5
			c0.1,0.2,0.2,0.5,0.2,0.8c0.1,1.7-1.5,3.2-2.5,4h0c-0.1,0.1-0.9,0.6-1.4,0.8c-0.1,0-0.1,0.1-0.2,0.1c0,0-0.1,0.1-0.1,0.1v0
			c-1.7,1.2-2.1,3.7-2.2,5l0,0v0c0,0.2,0,0.4,0,0.5c0,0.2,0,0.4,0,0.6c0,0.2-0.1,0.4-0.1,0.6l0,0c-0.5,1.9-1.5,3-2.5,3.6
			c-0.5,0.3-1,0.4-1.5,0.5c0,0-0.1,0-0.1,0c0,0,0,0,0,0c-0.6,0.1-1.8,0.1-1.8,0.1l0,0c-0.1,0-0.2,0-0.3,0c0,0-0.1,0-0.1,0l0,0
			C158.3,155.9,156,159.3,156,159.3z"/>
		<g>
			<path class="st1" d="M113.4,126.9c-6.7-5.9-6.1-12.2-6.1-12.2c0.5-8.8,9-11.7,9-11.7C102.9,112.7,113.4,126.9,113.4,126.9z"/>
			<path class="st1" d="M122.7,114.1c3.7-0.5,5.7,1.9,5.7,1.9c5.1-1.9,8.5,1.9,8.5,1.9c4.1,3.8,2.6,9.5,2.6,9.5
				c-0.5,2.4-2.1,4.3-3.7,5.7h0c0,0-0.8,0.8-1.9,1.5c-0.6,0.4-0.9,0.6-0.9,0.6c-0.1,0-0.3,0.1-0.4,0.1c-0.8,0.3-1.6,0.6-2.4,0.5
				c0,0,0,0,0,0c-3.1,0.3-5.3-0.6-5.3-0.6c-0.8-0.5-2.8-1.3-2.8-1.3c-3.6-1.5-11,0-11,0c-2.2,0.5-9.8,1-9.8,1
				c-6.5-0.3-9.9-4.1-9.9-4.1c-5.8-6.1-6.2-11.8-6.2-11.8c-1-5.6,1.9-9.5,1.9-9.5c2.8-3.9,7-5.6,7-5.6c1.5-0.7,1.7-1.8,1.7-1.8
				c0.1-1.5-2.6-2.2-2.6-2.2c-1.6-0.8-1.4-2.7-1.4-2.7C92.1,95.8,94,94,94,94c-0.3,0.5-0.4,2.1-0.4,2.1c-0.3,1.7,2.8,3.6,2.8,3.6
				c2.4,1.6,0,3.4,0,3.4c-0.5,0.3-2.6,1.9-2.6,1.9c-3.7,3.2-4.4,5.7-4.4,5.7c-1.8,6,0.6,11,0.6,11c4.3,9.4,14.5,10.7,14.5,10.7
				c2,0.4,11,0.1,11,0.1c4.8-0.5,8.9,1.4,8.9,1.4c4.7,2.3,8.8-1,8.8-1c4.9-3,4.7-8.5,4.7-8.5c0.4-4.7-4.3-7.3-4.3-7.3
				c-2.2-1.3-5.6-0.4-5.6-0.4c-0.2-0.2-0.8-0.7-0.8-0.7c-4-2.5-7.4,1.3-7.4,1.3c-3.3,3.2-1.1,7.9-1.1,7.9c-2.8-3.4-1.8-6.2-1.8-6.2
				c0.6-1.4,1.6-2.5,2.4-3.3c0,0,0,0,0,0C121,114.1,122.7,114.1,122.7,114.1L122.7,114.1z"/>
		</g>
	</g>
</g>
</svg>
